<svg xmlns="http://www.w3.org/2000/svg" viewBox="0 0 300 300">
  <defs>
    <linearGradient gradientTransform="rotate(25)" id="8e383f4e-f053-406f-b339-2016e29dbbf0" x1="0%" y1="0%" x2="100%"
      y2="0%">
      <stop offset="0%" stop-color="#8D2CE3" stop-opacity="1"></stop>
      <stop offset="100%" stop-color="#F7C6F6" stop-opacity="1"></stop>
    </linearGradient>
  </defs>
  <rect fill="url(#8e383f4e-f053-406f-b339-2016e29dbbf0)" x="0" y="0" width="300px" height="300px"></rect>
  <defs>
  </defs>
  <g id="593b6045-cbd4-4e57-9032-b8f15f47887b" fill="#ffffff"
    transform="matrix(4.253527078828282,0,0,4.253527078828282,36.85618067925809,194.15540124566857)">
    <path
      d="M2.72 7.56L2.72 7.56Q2.67 8.65 2.51 9.58L2.51 9.58L2.51 9.58Q2.34 10.50 2.04 10.50L2.04 10.50L2.04 10.50Q1.69 10.50 1.23 10.26L1.23 10.26L1.23 10.26Q0.77 10.02 0.44 9.70L0.44 9.70L0.44 9.70Q0.11 9.37 0.11 9.13L0.11 9.13L0.11 9.13Q0.11 8.96 0.22 8.55L0.22 8.55L0.22 8.55Q0.34 8.13 0.49 7.63L0.49 7.63L0.49 7.63Q1.04 5.84 1.34 4.42L1.34 4.42L1.34 4.42Q1.51 3.64 1.64 2.80L1.64 2.80L1.64 2.80Q1.83 1.68 1.97 1.08L1.97 1.08L1.97 1.08Q2.11 0.48 2.33 0.06L2.33 0.06L2.33 0.06Q2.55-0.35 2.87-0.35L2.87-0.35L2.87-0.35Q3.11-0.35 3.58-0.06L3.58-0.06L3.58-0.06Q4.05 0.22 4.41 0.60L4.41 0.60L4.41 0.60Q4.77 0.97 4.77 1.20L4.77 1.20L4.77 1.20Q4.77 1.41 4.63 1.67L4.63 1.67L4.63 1.67Q4.48 1.93 4.14 2.41L4.14 2.41L4.14 2.41Q4.07 2.51 3.89 2.80L3.89 2.80L3.89 2.80Q3.70 3.09 3.61 3.29L3.61 3.29L3.61 3.29Q3.44 3.70 3.24 4.33L3.24 4.33L3.24 4.33Q3.04 4.96 2.90 5.56L2.90 5.56L3.15 5.70L3.15 5.70Q4.06 4.47 4.74 3.72L4.74 3.72L4.74 3.72Q5.42 2.98 5.80 2.98L5.80 2.98L5.80 2.98Q6.06 2.98 6.44 3.25L6.44 3.25L6.44 3.25Q6.82 3.51 7.10 3.86L7.10 3.86L7.10 3.86Q7.38 4.20 7.38 4.38L7.38 4.38L7.38 4.38Q7.36 4.63 7.22 5.10L7.22 5.10L7.22 5.10Q7.07 5.57 6.76 6.41L6.76 6.41L6.76 6.41Q6.37 7.42 6.06 8.39L6.06 8.39L6.06 8.39Q6.50 8.22 6.79 8.05L6.79 8.05L6.79 8.05Q7.08 7.88 7.48 7.59L7.48 7.59L7.48 7.59Q8.06 7.84 8.34 8.22L8.34 8.22L8.34 8.22Q8.61 8.60 8.58 9.14L8.58 9.14L8.58 9.14Q8.58 9.48 8.07 9.79L8.07 9.79L8.07 9.79Q7.56 10.09 6.90 10.30L6.90 10.30L6.90 10.30Q6.23 10.50 5.84 10.50L5.84 10.50L5.84 10.50Q5.52 10.50 5.10 10.25L5.10 10.25L5.10 10.25Q4.68 10.00 4.37 9.67L4.37 9.67L4.37 9.67Q4.06 9.34 4.07 9.16L4.07 9.16L4.07 9.16Q4.07 9.04 4.21 8.62L4.21 8.62L4.21 8.62Q4.35 8.19 4.40 8.04L4.40 8.04L4.40 8.04Q4.66 7.20 4.79 6.70L4.79 6.70L4.79 6.70Q4.93 6.20 4.93 5.96L4.93 5.96L4.93 5.96Q4.93 5.80 4.86 5.80L4.86 5.80L4.86 5.80Q4.55 5.80 3.93 6.33L3.93 6.33L3.93 6.33Q3.32 6.86 2.72 7.56L2.72 7.56ZM15.75 8.44L15.75 8.44Q16.60 8.02 17.19 7.55L17.19 7.55L17.19 7.55Q17.81 7.76 18.11 8.13L18.11 8.13L18.11 8.13Q18.41 8.50 18.41 8.97L18.41 8.97L18.41 8.97Q18.41 9.31 17.93 9.67L17.93 9.67L17.93 9.67Q17.46 10.02 16.80 10.26L16.80 10.26L16.80 10.26Q16.14 10.50 15.68 10.50L15.68 10.50L15.68 10.50Q15.36 10.50 14.95 10.26L14.95 10.26L14.95 10.26Q14.53 10.02 14.23 9.70L14.23 9.70L14.23 9.70Q13.93 9.38 13.93 9.20L13.93 9.20L13.93 9.20Q13.93 9.06 14.05 8.82L14.05 8.82L14.05 8.82Q14.17 8.58 14.31 8.33L14.31 8.33L14.31 8.33Q14.45 8.08 14.49 7.99L14.49 7.99L14.14 7.80L14.14 7.80Q13.40 9.02 12.72 9.76L12.72 9.76L12.72 9.76Q12.04 10.50 11.38 10.50L11.38 10.50L11.38 10.50Q10.93 10.50 10.44 10.11L10.44 10.11L10.44 10.11Q9.94 9.72 9.60 9.16L9.60 9.16L9.60 9.16Q9.25 8.60 9.25 8.16L9.25 8.16L9.25 8.16Q9.25 6.92 9.77 5.61L9.77 5.61L9.77 5.61Q10.29 4.31 11.22 3.46L11.22 3.46L11.22 3.46Q12.15 2.60 13.33 2.60L13.33 2.60L13.33 2.60Q13.75 2.60 14.18 2.98L14.18 2.98L14.18 2.98Q14.62 3.36 14.74 3.75L14.74 3.75L14.74 3.75Q14.81 3.44 14.95 3.21L14.95 3.21L14.95 3.21Q15.08 2.98 15.23 2.98L15.23 2.98L15.23 2.98Q15.60 2.98 16.04 3.24L16.04 3.24L16.04 3.24Q16.48 3.50 16.79 3.84L16.79 3.84L16.79 3.84Q17.09 4.19 17.09 4.38L17.09 4.38L17.09 4.38Q17.08 4.65 16.88 5.26L16.88 5.26L16.88 5.26Q16.67 5.88 16.23 7.14L16.23 7.14L16.23 7.14Q15.96 7.83 15.75 8.44L15.75 8.44ZM11.45 8.55L11.45 8.55Q12.59 7.85 13.43 6.82L13.43 6.82L13.43 6.82Q14.27 5.80 14.57 4.55L14.57 4.55L14.57 4.55Q14.20 4.38 13.86 4.38L13.86 4.38L13.86 4.38Q13.20 4.38 12.68 4.97L12.68 4.97L12.68 4.97Q12.17 5.56 11.86 6.51L11.86 6.51L11.86 6.51Q11.55 7.46 11.45 8.55L11.45 8.55ZM24.12 8.26L24.12 8.26Q23.25 8.96 22.32 9.51L22.32 9.51L22.32 9.51Q21.38 10.05 20.87 10.05L20.87 10.05L20.87 10.05Q20.66 10.05 20.32 9.82L20.32 9.82L20.32 9.82Q19.98 9.59 19.72 9.27L19.72 9.27L19.72 9.27Q19.46 8.95 19.46 8.68L19.46 8.68L19.46 8.68Q19.46 8.43 19.58 8.02L19.58 8.02L19.58 8.02Q19.70 7.62 19.96 6.85L19.96 6.85L19.96 6.85Q20.36 5.75 20.36 5.49L20.36 5.49L20.36 5.49Q20.36 5.38 20.22 5.24L20.22 5.24L20.22 5.24Q20.09 5.11 19.82 4.91L19.82 4.91L19.82 4.91Q19.52 4.68 19.37 4.54L19.37 4.54L19.37 4.54Q19.22 4.40 19.22 4.24L19.22 4.24L19.22 4.24Q19.22 3.95 19.50 3.56L19.50 3.56L19.50 3.56Q19.77 3.16 20.14 2.88L20.14 2.88L20.14 2.88Q20.51 2.60 20.78 2.60L20.78 2.60L20.78 2.60Q21.07 2.60 21.46 2.87L21.46 2.87L21.46 2.87Q21.84 3.14 22.13 3.48L22.13 3.48L22.13 3.48Q22.41 3.82 22.41 4.00L22.41 4.00L22.41 4.00Q22.41 4.79 22.20 5.87L22.20 5.87L22.20 5.87Q21.98 6.96 21.57 8.09L21.57 8.09L21.57 8.09Q22.71 7.50 23.84 6.58L23.84 6.58L23.84 6.58Q24.02 4.79 24.19 3.88L24.19 3.88L24.19 3.88Q24.36 2.98 24.67 2.98L24.67 2.98L24.67 2.98Q24.88 2.98 25.30 3.27L25.30 3.27L25.30 3.27Q25.73 3.56 26.08 3.91L26.08 3.91L26.08 3.91Q26.42 4.27 26.42 4.47L26.42 4.47L26.42 4.47Q26.42 4.76 25.98 7.13L25.98 7.13L25.98 7.13Q25.55 9.51 25.07 11.70L25.07 11.70L25.07 11.70Q24.60 13.89 24.39 14.22L24.39 14.22L24.39 14.22Q24.08 14.73 23.38 15.11L23.38 15.11L23.38 15.11Q22.68 15.48 22.02 15.48L22.02 15.48L22.02 15.48Q21.46 15.48 20.82 15.11L20.82 15.11L20.82 15.11Q20.19 14.73 19.76 14.18L19.76 14.18L19.76 14.18Q19.33 13.62 19.33 13.16L19.33 13.16L19.33 13.16Q19.33 12.54 20.73 11.36L20.73 11.36L20.73 11.36Q22.13 10.18 24.37 8.64L24.37 8.64L24.12 8.26ZM23.90 10.54L23.90 10.54Q21.43 12.47 21.43 13.23L21.43 13.23L21.43 13.23Q21.43 13.50 21.71 13.72L21.71 13.72L21.71 13.72Q21.99 13.94 22.41 14.01L22.41 14.01L22.41 14.01Q22.88 13.36 23.19 12.59L23.19 12.59L23.19 12.59Q23.51 11.83 23.90 10.54L23.90 10.54ZM33.52 8.44L33.52 8.44Q34.37 8.02 34.96 7.55L34.96 7.55L34.96 7.55Q35.57 7.76 35.88 8.13L35.88 8.13L35.88 8.13Q36.18 8.50 36.18 8.97L36.18 8.97L36.18 8.97Q36.18 9.31 35.70 9.67L35.70 9.67L35.70 9.67Q35.22 10.02 34.57 10.26L34.57 10.26L34.57 10.26Q33.91 10.50 33.45 10.50L33.45 10.50L33.45 10.50Q33.12 10.50 32.71 10.26L32.71 10.26L32.71 10.26Q32.30 10.02 32.00 9.70L32.00 9.70L32.00 9.70Q31.70 9.38 31.70 9.20L31.70 9.20L31.70 9.20Q31.70 9.06 31.82 8.82L31.82 8.82L31.82 8.82Q31.93 8.58 32.07 8.33L32.07 8.33L32.07 8.33Q32.21 8.08 32.26 7.99L32.26 7.99L31.91 7.80L31.91 7.80Q31.16 9.02 30.49 9.76L30.49 9.76L30.49 9.76Q29.81 10.50 29.15 10.50L29.15 10.50L29.15 10.50Q28.70 10.50 28.20 10.11L28.20 10.11L28.20 10.11Q27.71 9.72 27.36 9.16L27.36 9.16L27.36 9.16Q27.02 8.60 27.02 8.16L27.02 8.16L27.02 8.16Q27.02 6.92 27.54 5.61L27.54 5.61L27.54 5.61Q28.06 4.31 28.99 3.46L28.99 3.46L28.99 3.46Q29.92 2.60 31.09 2.60L31.09 2.60L31.09 2.60Q31.51 2.60 31.95 2.98L31.95 2.98L31.95 2.98Q32.38 3.36 32.51 3.75L32.51 3.75L32.51 3.75Q32.58 3.44 32.71 3.21L32.71 3.21L32.71 3.21Q32.84 2.98 33.00 2.98L33.00 2.98L33.00 2.98Q33.36 2.98 33.80 3.24L33.80 3.24L33.80 3.24Q34.24 3.50 34.55 3.84L34.55 3.84L34.55 3.84Q34.86 4.19 34.86 4.38L34.86 4.38L34.86 4.38Q34.85 4.65 34.64 5.26L34.64 5.26L34.64 5.26Q34.44 5.88 33.99 7.14L33.99 7.14L33.99 7.14Q33.73 7.83 33.52 8.44L33.52 8.44ZM29.22 8.55L29.22 8.55Q30.35 7.85 31.19 6.82L31.19 6.82L31.19 6.82Q32.03 5.80 32.34 4.55L32.34 4.55L32.34 4.55Q31.96 4.38 31.63 4.38L31.63 4.38L31.63 4.38Q30.97 4.38 30.45 4.97L30.45 4.97L30.45 4.97Q29.93 5.56 29.62 6.51L29.62 6.51L29.62 6.51Q29.32 7.46 29.22 8.55L29.22 8.55ZM41.02 4.27L41.02 4.27Q40.39 4.75 40.01 5.21L40.01 5.21L40.01 5.21Q39.62 5.67 39.62 5.99L39.62 5.99L39.62 5.99Q39.62 6.15 39.89 6.31L39.89 6.31L39.89 6.31Q40.15 6.47 40.77 6.75L40.77 6.75L40.77 6.75Q41.75 7.20 42.31 7.58L42.31 7.58L42.31 7.58Q42.87 7.97 42.87 8.47L42.87 8.47L42.87 8.47Q42.87 8.97 42.30 9.44L42.30 9.44L42.30 9.44Q41.73 9.91 40.89 10.21L40.89 10.21L40.89 10.21Q40.05 10.50 39.33 10.50L39.33 10.50L39.33 10.50Q38.78 10.50 38.18 10.27L38.18 10.27L38.18 10.27Q37.58 10.04 37.17 9.68L37.17 9.68L37.17 9.68Q36.76 9.32 36.76 9.00L36.76 9.00L36.76 9.00Q36.76 8.43 37.14 8.09L37.14 8.09L37.14 8.09Q37.51 7.74 38.11 7.74L38.11 7.74L38.11 7.74Q38.39 7.74 38.68 7.83L38.68 7.83L38.68 7.83Q38.92 8.58 39.09 8.90L39.09 8.90L39.09 8.90Q39.94 8.68 40.61 8.15L40.61 8.15L40.61 8.15Q39.44 7.64 38.47 7.01L38.47 7.01L38.47 7.01Q37.49 6.38 37.49 5.84L37.49 5.84L37.49 5.84Q37.49 5.28 38.01 4.50L38.01 4.50L38.01 4.50Q38.53 3.72 39.33 3.16L39.33 3.16L39.33 3.16Q40.14 2.59 40.98 2.59L40.98 2.59L40.98 2.59Q41.55 2.59 42.08 2.93L42.08 2.93L42.08 2.93Q42.60 3.26 42.92 3.77L42.92 3.77L42.92 3.77Q43.25 4.27 43.25 4.75L43.25 4.75L43.25 4.75Q43.25 5.21 42.89 5.50L42.89 5.50L42.89 5.50Q42.53 5.78 41.99 5.78L41.99 5.78L41.99 5.78Q41.64 5.78 41.27 5.64L41.27 5.64L41.27 5.64Q41.24 5.08 41.02 4.27L41.02 4.27ZM50.43 8.44L50.43 8.44Q51.28 8.02 51.87 7.55L51.87 7.55L51.87 7.55Q52.49 7.76 52.79 8.13L52.79 8.13L52.79 8.13Q53.09 8.50 53.09 8.97L53.09 8.97L53.09 8.97Q53.09 9.31 52.61 9.67L52.61 9.67L52.61 9.67Q52.14 10.02 51.48 10.26L51.48 10.26L51.48 10.26Q50.82 10.50 50.36 10.50L50.36 10.50L50.36 10.50Q50.04 10.50 49.62 10.26L49.62 10.26L49.62 10.26Q49.21 10.02 48.91 9.70L48.91 9.70L48.91 9.70Q48.61 9.38 48.61 9.20L48.61 9.20L48.61 9.20Q48.61 9.06 48.73 8.82L48.73 8.82L48.73 8.82Q48.85 8.58 48.99 8.33L48.99 8.33L48.99 8.33Q49.13 8.08 49.17 7.99L49.17 7.99L48.82 7.80L48.82 7.80Q48.08 9.02 47.40 9.76L47.40 9.76L47.40 9.76Q46.72 10.50 46.06 10.50L46.06 10.50L46.06 10.50Q45.61 10.50 45.12 10.11L45.12 10.11L45.12 10.11Q44.62 9.72 44.28 9.16L44.28 9.16L44.28 9.16Q43.93 8.60 43.93 8.16L43.93 8.16L43.93 8.16Q43.93 6.92 44.45 5.61L44.45 5.61L44.45 5.61Q44.97 4.31 45.90 3.46L45.90 3.46L45.90 3.46Q46.83 2.60 48.01 2.60L48.01 2.60L48.01 2.60Q48.43 2.60 48.86 2.98L48.86 2.98L48.86 2.98Q49.29 3.36 49.42 3.75L49.42 3.75L49.42 3.75Q49.49 3.44 49.62 3.21L49.62 3.21L49.62 3.21Q49.76 2.98 49.91 2.98L49.91 2.98L49.91 2.98Q50.27 2.98 50.72 3.24L50.72 3.24L50.72 3.24Q51.16 3.50 51.46 3.84L51.46 3.84L51.46 3.84Q51.77 4.19 51.77 4.38L51.77 4.38L51.77 4.38Q51.76 4.65 51.56 5.26L51.56 5.26L51.56 5.26Q51.35 5.88 50.90 7.14L50.90 7.14L50.90 7.14Q50.64 7.83 50.43 8.44L50.43 8.44ZM46.13 8.55L46.13 8.55Q47.26 7.85 48.10 6.82L48.10 6.82L48.10 6.82Q48.94 5.80 49.25 4.55L49.25 4.55L49.25 4.55Q48.87 4.38 48.54 4.38L48.54 4.38L48.54 4.38Q47.88 4.38 47.36 4.97L47.36 4.97L47.36 4.97Q46.84 5.56 46.54 6.51L46.54 6.51L46.54 6.51Q46.23 7.46 46.13 8.55L46.13 8.55Z">
    </path>
  </g>
  <defs>
  </defs>
  <g id="13b1bd73-bda8-4423-872e-d0f4a2939f73" stroke="none" fill="#ffffff"
    transform="matrix(2.0867001528029587,0,0,2.0867001528029587,49.86759041997641,0.5774394092291288)">
    <g clip-rule="evenodd">
      <path
        d="M71.014 39.409c-.013.194-.029.388-.036.582-.014.353.001.708-.035 1.058-.083.791-.16 1.584-.295 2.367-.092.535-.184 1.107-.446 1.565-.305.534-.165.708.316.947.223.11.33.462.479.71.25.417.512.83.729 1.265.101.204.08.465.158.685.313.878.645 1.75.967 2.618.424-.451 1.043-.563 1.646-.715.544-.138 1.073-.297 1.428-.794.591-.827 1.432-1.369 2.286-1.871.308-.18.701-.26 1.063-.29.507-.041.689.257.52.743-.033.097-.069.192-.118.328.31.104.597.216.892.297.424.116.54.278.373.699-.103.26-.047.403.152.572.461.391.492 1.008.031 1.398-.247.209-.591.306-.895.445-.74.339-1.482.672-2.222 1.012-.064.03-.104.118-.169.141-1.75.605-3.287 1.638-4.927 2.462-.726.364-1.383.865-2.072 1.302a1.294 1.294 0 0 1-.277.136c-.825.274-1.035.553-1.008 1.43.013.418.095.834.115 1.252.026.547.018 1.096.034 1.644.007.253.041.506.057.759.02.302.044.604.048.905.012.989.006 1.979.026 2.968.005.218.096.433.132.651.04.24.122.494.083.725-.156.911-.063 1.821-.046 2.732.004.256-.073.513-.104.77a2.035 2.035 0 0 0-.02.44c.063.626.083 1.263.222 1.873.182.799.187 1.618.354 2.412.217 1.038.205 2.104.428 3.139.092.424.144.855.223 1.337.551-.297.86-.031 1.061.391.235.493.634.933.463 1.568-.103.379-.314.635-.659.709-.887.191-1.779.404-2.68.471-.854.063-1.719-.061-2.58-.081-.907-.021-1.814-.008-2.722-.03a23.208 23.208 0 0 1-1.579-.107c-.098-.009-.185-.116-.282-.167-.082-.042-.178-.105-.26-.095-.58.076-1.155.206-1.737.249-1.06.077-2.123.102-3.186.158-.235.013-.469.087-.704.099-1.175.06-2.351.115-3.526.155a2.165 2.165 0 0 1-.651-.099c-.671-.19-1.34-.363-2.044-.191-.069.018-.147.001-.221-.003-1.136-.064-2.271-.183-3.406-.182-1.774 0-3.552.034-5.324.141-1.666.099-3.318-.058-4.976-.132-.796-.035-1.588-.173-2.384-.235-.515-.04-1.034-.028-1.55-.037a.405.405 0 0 0-.175.024c-.807.397-1.65.433-2.522.297-.453-.071-.918-.134-1.373-.108-.702.039-1.397.209-2.098.23-1.319.039-2.647.268-3.959-.113-.211-.061-.459.013-.689.009-.264-.005-.618.071-.77-.066-.18-.165-.323-.579-.236-.776.111-.251.447-.445.728-.563.242-.102.551-.026.815-.091a3.818 3.818 0 0 1 1.968.039c.084.023.191-.034.288-.058.449-.107.905-.191 1.344-.328.65-.204 1.315-.198 1.982-.225.164-.006.323-.105.485-.16.083-.028.171-.078.252-.072.365.03.729.101 1.095.11.288.008.576-.058.865-.078 1.034-.075 2.069-.13 3.102-.222 1.026-.091 2.048-.23 3.074-.319.309-.026.628.082.938.063.505-.03 1.007-.131 1.512-.172.868-.069 1.737-.13 2.607-.167.604-.026 1.21.003 1.815-.009 1.022-.019 2.044-.073 3.067-.069 1.004.004 2.008.063 3.012.096.49.017.98.041 1.472.041.693 0 1.388-.023 2.082-.029.888-.007 1.777.02 2.664-.016.793-.032 1.583-.14 2.376-.191.395-.025.794.015 1.189.001a22.47 22.47 0 0 0 1.512-.095c.416-.043.835-.276 1.228.078.034.03.116.014.176.01l2.232-.145c-.174-.155-.289-.292-.434-.383-.622-.39-.948-1.112-1.52-1.493-.815-.543-1.518-1.217-2.317-1.767-.109-.075-.273-.099-.411-.099-.884-.003-1.767.02-2.649 0-.124-.003-.464.071-.38-.316.01-.047-.329-.17-.5-.254-.27.409-.831.512-1.24.271-.083-.049-.226-.13-.265-.1-.362.288-.711.027-1.06-.014-.615-.072-1.227-.183-1.842-.26-.186-.022-.388.055-.566.015-.29-.064-.561-.23-.852-.278-.729-.119-1.485-.12-2.192-.312-.657-.177-1.287-.059-1.929-.073-.827-.018-1.655-.094-2.479-.062-.585.022-1.164.187-1.748.281a2.401 2.401 0 0 1-.52.046c-.56-.032-1.093-.003-1.563.37-.125.099-.331.102-.502.137-.825.17-1.649.339-2.476.502-.732.144-1.468.274-2.2.422-.271.056-.554.104-.797.225-1.013.502-2.035.485-3.042.044-.568-.25-.539-.916-.02-1.293.514-.374.992-.798 1.49-1.193a4.82 4.82 0 0 1 .503-.346c.776-.465 1.531-.954 2.161-1.617.141-.148.31-.285.492-.379.912-.469 1.606-1.191 2.322-1.9.417-.413.912-.746 1.37-1.117.102-.082.21-.161.292-.262.607-.748 1.204-1.504 1.815-2.249.185-.225.407-.418.604-.632.095-.103.172-.222.257-.333l-.07-.135c-.329.097-.669.167-.985.295-.433.177-.704.104-.823-.345-.153-.576-.236-1.171-.373-1.752-.081-.345-.153-.716-.657-.691-.651.033-.969.258-1.117.729-.062.198-.258.484-.408.494-.192.012-.5-.169-.581-.348-.217-.475-.46-.936-.407-1.524.041-.459-.176-.941-.286-1.448-.467.13-.68.407-.835.732a51.685 51.685 0 0 0-.893 1.945c-.12.282-.159.598-.26.889a.687.687 0 0 1-.244.339c-.045.03-.198-.103-.301-.164-.235-.14-.473-.276-.703-.424-.883-.565-1.753-1.153-2.65-1.695-.481-.29-1.003-.516-1.518-.746-1.085-.486-2.058-1.226-3.265-1.44-.258-.046-.593-.074-.732-.243-.104-.127.058-.465.085-.71.138-1.221.238-2.446.414-3.661.139-.962.367-1.912.562-2.866.012-.063.084-.11.117-.171.176-.335.357-.666.517-1.009.074-.158.071-.357.161-.503.078-.126.251-.292.359-.277.141.021.343.184.371.316.065.306.257.385.507.481 1.005.392 1.985.851 3.002 1.203 1.096.38 2.221.68 3.339.993.546.153.911-.181.908-.72-.002-.512-.037-1.065.146-1.52.107-.266.602-.396.942-.539.2-.084.445-.053.661-.107.383-.095.785-.166 1.134-.337.93-.456 1.831-.973 2.759-1.434.191-.095.462-.104.679-.063.708.136 1.127-.102 1.296-.823.37-1.586 1.044-3.049 1.806-4.475.107-.2.279-.393.469-.515.564-.364 1.156-.686 1.73-1.035.562-.341 1.141-.663 1.656-1.064.172-.135.231-.49.241-.748.031-.793-.112-1.615.043-2.378.295-1.444.467-2.927 1.076-4.298a17.78 17.78 0 0 0 .652-1.771c.043-.134-.007-.38-.105-.457-.107-.084-.339-.082-.487-.03-.605.209-1.186.403-1.866.306-.516-.074-1.063.089-1.599.126-.546.038-1.094.064-1.642.071a35.699 35.699 0 0 1-1.7-.028c-.437-.016-.919.045-1.169-.444-.183-.36-.005-1.243.353-1.52.231-.179.556-.234.835-.353.671-.283 1.339-.571 2.009-.857l-.021-.149c-.44-.089-.886-.158-1.32-.271a434.863 434.863 0 0 1-4.894-1.296c-.136-.037-.239-.182-.373-.243a3.246 3.246 0 0 0-.557-.184c-.157-.038-.337-.01-.479-.073-.681-.305-.803-.792-.235-1.354.268-.264.683-.375 1.025-.565.536-.298 1.043-.661 1.605-.895.95-.395 1.936-.703 2.901-1.062.48-.179.935-.44 1.426-.575.723-.198 1.468-.317 2.204-.468.043-.009.093.004.133-.012 1.172-.454 2.456-.204 3.64-.582.422-.134.835-.293 1.259-.416.426-.123.858-.22 1.289-.318 1.038-.236 2.076-.479 3.118-.696 1.396-.292 2.801-.486 4.238-.355.631.058 1.272.014 1.908.02.162.001.324.013.485.026.786.065 1.576.109 2.357.209.488.063.963.22 1.448.317.185.037.402-.029.566.042.3.131.625.278.843.51.409.435.728.953 1.124 1.401.291.33.621.635.974.897 1.247.927 1.883 2.209 2.238 3.676.293 1.21.684 2.402.895 3.625.12.696.09 1.425-.061 2.168-.135.667-.217 1.339-.49 1.97-.117.271-.258.532-.367.806-.051.126-.052.272-.075.411-.3.227-.618.461-.928.706-.052.041-.1.129-.094.19.052.481.136.959.17 1.442.022.306-.02.617-.037.925-.022.38-.049.761-.075 1.143-.065-.111-.177-.221-.187-.339-.046-.504-.034-1.014-.095-1.515-.096-.798-.246-1.59-.35-2.387-.11-.846-.19-1.697-.29-2.544-.056-.467-.249-.629-.688-.511-.682.183-1.326.031-1.986-.115a159.486 159.486 0 0 0-3.748-.768c-.23-.045-.477-.003-.71-.038-.938-.139-1.869-.35-2.811-.424-1.063-.083-2.136-.073-3.202-.055-.922.016-1.845.079-2.763.159-.93.082-1.783.314-2.178 1.314-.213.539-.489 1.052-.697 1.593-.746 1.931-1.347 3.903-1.195 6.002.037.514.095 1.082.516 1.522.58.605 1.325.926 2.052 1.271.376.178.895.107 1.215.336.484.347 1.065.35 1.558.455 1.071.229 2.174.314 3.257.568.951.223 1.901.462 2.927.443 1.563-.029 3.133.146 4.692.305 1.069.109 2.12.058 3.174-.084.123-.017.293-.138.334-.25.2-.551.414-1.105.53-1.677.153-.757.201-1.535.332-2.298.058-.334.208-.65.315-.972zm4.471 11.857l.006-.152c-.284.08-.58.133-.85.248-.597.254-1.17.563-1.771.805-.59.237-.864-.054-.812-.704.037-.447.048-.945-.11-1.351-.392-.999-.817-1.999-1.364-2.918-.369-.621-.845-1.278-1.804-1.075-.382.081-.797.008-1.197.003-1.303-.016-2.579-.409-3.896-.265-.259.028-.529-.047-.794-.074-.549-.055-1.097-.112-1.646-.163-.943-.087-1.891-.143-2.829-.263-.668-.085-1.325-.259-1.988-.383-.552-.104-1.113-.16-1.657-.295-.876-.219-1.738-.489-2.609-.731-.979-.273-1.909-.608-2.563-1.47-.268-.354-.628-.618-1.125-.336-.434.247-.907.436-1.306.728-.618.453-1.462.615-1.826 1.398-.143.309-.308.61-.43.926-.504 1.3-.998 2.604-1.491 3.909-.123.326-.289.651-.329.989-.147 1.25-.299 2.504-.353 3.76-.043.985.024 1.979.102 2.964.043.546.303.65.806.423.119-.054.219-.149.324-.23.434-.334.897-.638 1.285-1.019.223-.219.42-.554.456-.857.131-1.113.16-2.239.285-3.354.127-1.143.39-2.268.253-3.436-.031-.264.105-.588.257-.824.245-.378.601-.326.781.076.113.252.212.436.558.275.188-.088.445-.084.661-.052.707.104 1.402.109 2.088-.116.339-.111.708.063.658.343-.112.633.004 1.308-.358 1.9-.094.154-.081.373-.118.562.236.008.48.057.707.015.42-.079.824-.244 1.245-.312.556-.09.7.09.692.662-.017 1.367-.106 2.742.003 4.101.134 1.665.432 3.317.681 4.972.074.489-.215 1.198-.665 1.271-1.061.167-1.982.735-3.064.909-1.181.189-2.298.777-3.44 1.2a7.69 7.69 0 0 0-.901.396c-.148.078-.243.279-.393.328-.404.132-.849.157-1.232.327-.359.159-.92.195-.833.841.175.003.353.002.529.007.798.022 1.596.048 2.395.067.615.015 1.232-.009 1.845.04.847.067 1.69.177 2.533.286a91.96 91.96 0 0 1 2.666.386c1.335.214 2.673.419 3.999.675 1.195.231 2.377.53 3.566.791.322.071.65.121.978.164.317.042.65.018.955.102.765.209 1.52.459 2.276.7.657.209 1.308.439 1.967.642.387.118.784.199 1.228.31-.004-1.137-.006-2.23-.011-3.325-.002-.202-.019-.405-.02-.609-.004-.59.01-1.18-.01-1.769-.014-.381-.088-.759-.112-1.14-.071-1.134-.145-2.269-.193-3.404-.045-1.052-.059-2.104-.086-3.157 0-.016-.004-.031 0-.045.335-1.32-.026-2.658.097-3.985.037-.396-.038-.8-.03-1.199.005-.264-.004-.57.122-.78.125-.208.404-.431.631-.446.29-.019.707.038.745.47.051.578.047 1.161.063 1.742.023.802.048 1.603.06 2.404.004.245-.021.493-.053.736-.039.311-.098.618-.169 1.051.836-.476 1.544-.874 2.247-1.279.547-.315 1.054-.752 1.641-.936a8.976 8.976 0 0 0 2.779-1.439c.111-.085.195-.323.158-.451-.037-.124-.239-.208-.38-.292-.165-.102-.34-.181-.51-.268zM61.588 74.899c.345.422.594.796.911 1.098.365.347.791.63 1.189.941.195.153.374.335.586.459.379.222.795.384 1.165.619.796.509 1.561 1.065 2.36 1.568.545.343 1.125.631 1.693.936.319.171.516.064.492-.305a39.889 39.889 0 0 0-.214-2.315c-.054-.439-.125-.886-.269-1.301-.099-.283-.446-.503-.057-.818.041-.034.004-.172-.005-.261-.033-.328-.09-.655-.099-.983-.013-.544-.179-.98-.646-1.139.111-.254.305-.488.294-.714-.018-.406-.245-.812-.227-1.211.035-.79-.274-1.269-1.013-1.521-.759-.26-1.567-.338-2.279-.79-.424-.268-.987-.32-1.491-.456-1.067-.288-2.135-.577-3.207-.845a20.113 20.113 0 0 0-1.906-.403c-1.094-.163-2.194-.279-3.291-.42a21.468 21.468 0 0 1-1.095-.172c-.583-.105-1.162-.243-1.748-.328-1.032-.15-2.069-.271-3.104-.405-.526-.068-1.052-.198-1.579-.201-1.053-.006-2.106.049-3.159.094-.513.022-1.044.006-1.533.136-.868.231-1.17 1.116-1.742 1.691-.405.407-.705.923-1.117 1.322a26.026 26.026 0 0 1-1.974 1.718c-.646.511-1.089 1.258-2.014 1.461-.426.094-.766.607-1.133.941-.67.608-1.33 1.229-2.271 1.427-.007.265.048.59.355.322.491-.428 1.104-.419 1.653-.617.49-.177 1.026-.225 1.539-.345.749-.177 1.493-.376 2.243-.548.368-.085.745-.127 1.116-.198.728-.14 1.449-.365 2.183-.414 1.3-.086 2.607-.081 3.912-.086.56-.002 1.128.016 1.678.112 1.317.231 2.622.534 3.938.769.477.085.976.038 1.46.089.496.053.986.175 1.483.225.525.052 1.06.028 1.585.085 1.254.135 2.504.098 3.754-.034.354-.037.746-.236 1.047-.138.664.22 1-.31 1.488-.481.18-.063.4-.011.602-.011 0 .183.042.38-.012.546-.073.223-.22.422-.337.631-.311.553-.31.551-.878.254-.039-.024-.109.003-.326.016zm-21.68-49.722l.044.151c.183.085.357.207.549.251.861.202 1.724.403 2.593.565 1.157.215 2.317.426 3.483.579 1.008.132 2.028.169 3.041.271.482.049.633.376.417.822-.275.567-.787.853-1.407.815a9.492 9.492 0 0 0-1.106-.006c-.942.054-1.696.607-2.517.981-.118.054-.21.163-.314.247l.045.13c.621.001 1.244.031 1.863-.007.443-.028.876-.176 1.319-.22a77.562 77.562 0 0 1 3.007-.242c.529-.032 1.063.014 1.594-.008.41-.018.816-.1 1.227-.13 1.471-.112 2.947-.167 4.411-.334 1.257-.143 2.478.056 3.71.189.609.065 1.217.156 1.826.223.586.063 1.182.069 1.76.172 1.26.225 2.512.499 3.768.746.142.028.295.05.435.026.601-.106.853.174.859.791.01.897.102 1.793.174 2.688.011.137.103.267.164.415.453-.237.747-.567.861-1.048.029-.128.035-.318.118-.368.417-.249.338-.652.349-1.019.011-.401-.03-.803-.028-1.205.006-1.198-.074-2.348-.903-3.345-.312-.375-.38-.944-.611-1.398a126.807 126.807 0 0 0-1.599-3.002c-.102-.186-.249-.35-.388-.513-.453-.534-1.205-.648-1.668-1.174a.267.267 0 0 0-.157-.072c-.568-.069-1.139-.132-1.708-.197-.28-.032-.562-.055-.839-.1-.492-.08-.98-.234-1.474-.249-1.112-.033-2.23.062-3.34-.008-1.438-.091-2.825.146-4.214.44-.872.185-1.743.376-2.615.562-.307.065-.617.112-.92.19-.851.217-1.687.539-2.551.649-1.372.174-2.749.278-4.07.732-.615.211-1.24.393-1.86.588-.252.079-.507.148-.755.237-.517.184-1.041.352-1.54.576-.363.162-.69.403-1.033.609zm-3.932 32.534c-.174-.988-.329-1.912-.51-2.83-.022-.113-.169-.25-.287-.288-1.399-.452-2.815-.855-4.202-1.342-.878-.308-1.713-.736-2.57-1.106a4.623 4.623 0 0 0-.625-.228c-.247-.066-.432.002-.514.28-.158.54-.371 1.066-.493 1.613-.317 1.426-.445 2.89-.967 4.274-.308.817-.15 1.061.66 1.371.055.021.111.042.162.07.554.307 1.101.627 1.663.918.485.251.999.447 1.479.706.735.397 1.449.834 2.179 1.241a27.5 27.5 0 0 0 1.521.798c.231.111.455.126.498-.254.029-.257.14-.508.23-.755.183-.498.36-.999.572-1.484.242-.554.475-1.12.797-1.626.29-.45.609-.852.407-1.358zm1.361 2.239a6.036 6.036 0 0 1-.131.025c.086.438.15.884.271 1.313.031.112.242.254.362.246.322-.021.642-.107.958-.182.657-.152 1.313-.312 1.968-.473.085-.021.161-.076.245-.103.318-.101.636-.198.956-.293.294-.087.593-.157.88-.261.075-.026.181-.169.164-.222-.142-.412.04-.937-.482-1.231-.189-.106-.348-.4-.38-.629-.116-.836-.238-1.681-.238-2.522 0-1.528.064-3.059.145-4.586.044-.847.039-.892-.782-.793-.073.009-.145.036-.215.061-1.443.504-2.889 1-4.324 1.525-.146.053-.319.277-.323.427-.026.919-.11 1.854.017 2.757.232 1.658.599 3.296.909 4.941zm7.986 2.562l.09.162c.054.019.118.064.161.05.5-.175 1.043-.284 1.487-.556.964-.589 2.045-.777 3.108-.986.94-.184 1.839-.342 2.433-1.195.048-.07.175-.105.271-.119.264-.037.253-.18.198-.387-.113-.43-.247-.861-.295-1.3-.104-.953-.161-1.911-.231-2.867-.017-.214-.054-.439-.009-.645.234-1.058-.052-2.102-.074-3.151-.001-.084-.229-.248-.326-.229a9.463 9.463 0 0 0-1.236.33c-.377.125-.608.363-.507.813.024.105-.044.231-.063.348-.087.523-.221 1.045-.246 1.571-.039.829-.026 1.662.006 2.491.021.547.035 1.115.197 1.629.156.497-.006.95-.534 1.008-.237.026-.478.033-.715.062-.725.085-.97.354-.98 1.063-.01.682-.273.856-.95.73-.152-.028-.421.158-.514.316-.172.295-.346.478-.713.515-.196.018-.373.224-.558.347zm1.256-5.658c.153.4.279.795.456 1.165.11.23.251.514.457.616.448.223 1.362-.268 1.458-.765.113-.576.274-1.178.218-1.748-.15-1.498.163-2.953.302-4.421.07-.74.326-1.467.532-2.19.107-.378.056-.61-.368-.663-.678-.083-1.345-.29-2.033.043-.305.147-.48.273-.511.63-.122 1.381-.304 2.757-.398 4.139-.044.653.067 1.315.096 1.975.008.175-.015.353-.046.525-.042.229-.105.452-.163.694zm-5.118 7.183c.289-.065.58-.121.866-.197.583-.157 1.168-.311 1.743-.495.281-.091.426-.245.147-.552-.205-.225-.347-.516-.476-.797-.189-.412-.507-.537-.912-.438-.605.149-1.201.338-1.803.5-.288.077-.384.265-.341.538.053.339.142.674.173 1.014.037.402.235.519.603.427zM78.81 48.546l-.092-.159c-.158.065-.339.102-.471.202-.521.394-1.036.798-1.533 1.221-.09.076-.128.259-.125.392.016.782.544 1.322.943 1.919.056.085.221.181.295.155.427-.148.883-.271 1.248-.522.342-.235.659-.412 1.079-.462.215-.025.41-.223.615-.343l-.073-.187c-.198.012-.4 0-.593.04-.335.07-.66.206-.997.251-.428.058-.643-.255-.415-.608.078-.123.316-.176.49-.2.425-.056.708-.259.869-.688-.953-.19-1.711.343-2.503.607-.242-.414-.028-.586.229-.775.359-.262.692-.56 1.034-.843zM46.446 59.352l.101-.071c-.307-.653-.6-1.313-.934-1.952-.06-.115-.36-.242-.426-.194-.439.319-.929.624-1.241 1.051-.442.606-.233 1.611.317 2.156.511-.158 1.016-.286.974-1.018-.018-.314.357-.471.672-.324.192.089.359.232.537.352z">
      </path>
      <path
        d="M37.388 39.958c-.594-.016-1.171-.084-1.738-.035-.78.068-1.552.224-2.327.344-.058.009-.112.044-.17.053-.404.063-.815.098-1.213.186-.845.187-1.677.444-2.529.579-.282.044-.675-.132-.889-.34-.104-.102.014-.569.17-.755.121-.144.456-.118.698-.147.131-.016.27.03.399.013.833-.109 1.683-.159 2.49-.368.593-.153 1.246-.112 1.783-.48.077-.053.202-.107.275-.08.536.196 1.025-.041 1.539-.103.567-.068 1.158.006 1.73.086.118.016.272.331.274.508.004.37-.17.509-.492.539zM34.062 31.123c-.539.119-1.036.294-1.542.325-.82.05-1.647-.011-2.47.008-.548.013-1.1.054-1.642.136-.673.102-1.323.139-1.958-.175-.262-.129-.251-.256-.074-.435.009-.009.036-.003.042-.013.502-.846 1.358-.62 2.099-.652.909-.039 1.823.06 2.733.033.651-.019 1.3-.146 1.95-.225a3.33 3.33 0 0 1 .222-.021c.747-.041.872.11.682.819-.023.083-.035.169-.042.2zM20.367 70.681c-.464.265-.507 1.171-1.315.837-.319.395-.732.495-1.224.335-.138-.045-.304-.008-.457-.001-.349.016-.698.037-1.047.054-.303.015-.606.023-.909.039-.141.008-.297.069-.42.028-.509-.174-.574-.351-.369-.877.115-.296.586-.462.916-.349.132.045.288.025.433.022.359-.006.719-.002 1.076-.036.583-.056 1.198-.044 1.737-.236.596-.213 1.06.021 1.579.184zM57.726 42.384c-.389-.182-.865-.339-1.263-.611-.41-.281-.744-.673-1.109-1.018-.041-.039-.088-.081-.109-.131-.116-.264.168-1.287.409-1.493.322-.275.978-.336 1.368-.076.646.43 1.273.888 1.898 1.348a.56.56 0 0 1 .209.32c.057.318-.508 1.217-.817 1.357-.161.073-.315.163-.586.304zm.24-1.363a2.635 2.635 0 0 0-1.262-1.17c-.372-.165-.606.045-.81.268-.039.042.177.324.284.489.056.087.139.156.195.242.276.418.649.647 1.16.709.376.043.447-.12.433-.538zM68.911 34.145c.463.068.231.637.477.921.171.197-.407.759-.788.788-.365.027-.913-.453-.929-.814-.016-.352.617-.84 1.24-.895zM61.924 33.26c.3.138.75.225.776.381.058.35.016.846-.203 1.068-.147.151-.691 0-1.011-.13-.262-.107-.516-.428-.343-.719.146-.245.479-.379.781-.6z">
      </path>
    </g>
  </g>
</svg>